<svg xmlns="http://www.w3.org/2000/svg" viewBox="0 0 800 400">
  <!-- Background -->
  <rect width="800" height="400" fill="#f5f5f5" rx="20" ry="20"/>
  
  <!-- Main Container -->
  <rect x="50" y="50" width="700" height="300" fill="#ffffff" stroke="#e0e0e0" stroke-width="2" rx="10" ry="10"/>

  <!-- Repository Title -->
  <text x="400" y="80" font-family="Arial" font-size="28" font-weight="bold" fill="#333333" text-anchor="middle">JavaInterviewKit</text>

  <!-- Code Blocks -->
  <g transform="translate(300, 150)">
    <!-- Data Structures Block -->
    <rect x="0" y="0" width="180" height="40" fill="#5b87da" rx="5" ry="5"/>
    <text x="90" y="25" font-family="Courier New" font-size="14" fill="white" text-anchor="middle" dominant-baseline="middle">Data Structures</text>
    
    <!-- Algorithms Block -->
    <rect x="0" y="50" width="180" height="40" fill="#4CAF50" rx="5" ry="5"/>
    <text x="90" y="75" font-family="Courier New" font-size="14" fill="white" text-anchor="middle" dominant-baseline="middle">Algorithms</text>
    
    <!-- Patterns Block (changed from Design Patterns) -->
    <rect x="0" y="100" width="180" height="40" fill="#FF5722" rx="5" ry="5"/>
    <text x="90" y="125" font-family="Courier New" font-size="14" fill="white" text-anchor="middle" dominant-baseline="middle">Patterns</text>
  </g>
  
  
  <!-- Data Structure Illustrations -->
  <!-- Binary Tree -->
  <g transform="translate(150, 70)">
    <circle cx="50" cy="40" r="15" fill="#5b87da"/>
    <circle cx="20" cy="80" r="15" fill="#5b87da"/>
    <circle cx="80" cy="80" r="15" fill="#5b87da"/>
    <line x1="50" y1="40" x2="20" y2="80" stroke="#5b87da" stroke-width="3"/>
    <line x1="50" y1="40" x2="80" y2="80" stroke="#5b87da" stroke-width="3"/>
  </g>
  
  <!-- Linked List -->
  <g transform="translate(520, 70)">
    <circle cx="20" cy="40" r="15" fill="#4CAF50"/>
    <circle cx="60" cy="40" r="15" fill="#4CAF50"/>
    <circle cx="100" cy="40" r="15" fill="#4CAF50"/>
    <line x1="35" y1="40" x2="45" y2="40" stroke="#4CAF50" stroke-width="3"/>
    <line x1="75" y1="40" x2="85" y2="40" stroke="#4CAF50" stroke-width="3"/>
  </g>
  
  <!-- Stack -->
  <g transform="translate(150, 160)">
    <rect x="15" y="30" width="50" height="20" fill="#FF5722" stroke="#333333" stroke-width="1"/>
    <rect x="15" y="50" width="50" height="20" fill="#FF5722" stroke="#333333" stroke-width="1"/>
    <rect x="15" y="70" width="50" height="20" fill="#FF5722" stroke="#333333" stroke-width="1"/>
    <path d="M75,60 L85,60 L85,40 L95,60 L85,80 L85,60" fill="#333333"/>
  </g>
  
  <!-- Queue -->
  <g transform="translate(520, 160)">
    <rect x="10" y="50" width="60" height="20" fill="#9C27B0" stroke="#333333" stroke-width="1"/>
    <path d="M0,60 L10,60" stroke="#333333" stroke-width="2"/>
    <path d="M0,60 L5,55" stroke="#333333" stroke-width="2"/>
    <path d="M0,60 L5,65" stroke="#333333" stroke-width="2"/>
    <path d="M70,60 L80,60" stroke="#333333" stroke-width="2"/>
    <path d="M80,60 L75,55" stroke="#333333" stroke-width="2"/>
    <path d="M80,60 L75,65" stroke="#333333" stroke-width="2"/>
  </g>
  
  <!-- Trie -->
  <g transform="translate(150, 240)">
    <circle cx="40" cy="40" r="12" fill="#5b87da"/>
    <circle cx="20" cy="65" r="10" fill="#5b87da"/>
    <circle cx="40" cy="65" r="10" fill="#5b87da"/>
    <circle cx="60" cy="65" r="10" fill="#5b87da"/>
    <circle cx="10" cy="85" r="8" fill="#5b87da"/>
    <circle cx="30" cy="85" r="8" fill="#5b87da"/>
    <line x1="40" y1="40" x2="20" y2="65" stroke="#5b87da" stroke-width="2"/>
    <line x1="40" y1="40" x2="40" y2="65" stroke="#5b87da" stroke-width="2"/>
    <line x1="40" y1="40" x2="60" y2="65" stroke="#5b87da" stroke-width="2"/>
    <line x1="20" y1="65" x2="10" y2="85" stroke="#5b87da" stroke-width="2"/>
    <line x1="20" y1="65" x2="30" y2="85" stroke="#5b87da" stroke-width="2"/>
  </g>
  
  <!-- Graph -->
  <g transform="translate(520, 240)">
    <circle cx="40" cy="40" r="12" fill="#4CAF50"/>
    <circle cx="20" cy="65" r="12" fill="#4CAF50"/>
    <circle cx="60" cy="65" r="12" fill="#4CAF50"/>
    <circle cx="40" cy="90" r="12" fill="#4CAF50"/>
    <line x1="40" y1="40" x2="20" y2="65" stroke="#4CAF50" stroke-width="2"/>
    <line x1="40" y1="40" x2="60" y2="65" stroke="#4CAF50" stroke-width="2"/>
    <line x1="20" y1="65" x2="60" y2="65" stroke="#4CAF50" stroke-width="2"/>
    <line x1="20" y1="65" x2="40" y2="90" stroke="#4CAF50" stroke-width="2"/>
    <line x1="60" y1="65" x2="40" y2="90" stroke="#4CAF50" stroke-width="2"/>
  </g>
</svg>